<?xml version="1.0" standalone="no"?>
<!DOCTYPE svg PUBLIC "-//W3C//DTD SVG 20010904//EN"
 "http://www.w3.org/TR/2001/REC-SVG-20010904/DTD/svg10.dtd">
<svg version="1.0" xmlns="http://www.w3.org/2000/svg"
 width="898.000000pt" height="896.000000pt" viewBox="0 0 898.000000 896.000000"
 preserveAspectRatio="xMidYMid meet">

<g transform="translate(0.000000,896.000000) scale(0.100000,-0.100000)"
fill="#000000" stroke="none">
<path d="M4868 7815 c-19 -20 -586 -336 -938 -523 -47 -25 -89 -48 -95 -52 -5
-4 -35 -21 -65 -37 -30 -17 -80 -44 -110 -60 -82 -45 -179 -98 -230 -125 -25
-14 -74 -41 -110 -60 -247 -136 -239 -130 -224 -155 8 -12 9 -25 3 -36 -6 -10
-6 -23 0 -34 6 -10 15 -70 21 -133 6 -63 18 -173 25 -245 37 -349 47 -438 55
-530 5 -55 12 -116 15 -135 3 -19 10 -78 15 -130 5 -52 16 -162 25 -245 35
-327 46 -436 60 -590 19 -202 19 -202 52 -208 16 -3 60 -14 98 -25 39 -11 93
-24 120 -28 28 -3 61 -11 75 -16 13 -5 85 -11 160 -13 127 -4 144 -2 280 30
80 20 161 40 180 45 19 6 55 15 80 21 25 6 70 16 100 24 30 7 84 20 120 29 36
8 207 50 380 94 284 71 318 78 345 66 88 -37 222 -92 320 -131 60 -24 119 -48
130 -53 11 -5 45 -19 75 -30 51 -19 94 -37 145 -60 11 -5 87 -37 169 -70 83
-33 154 -64 160 -70 7 -7 -6 -10 -40 -10 -69 0 -837 -18 -1269 -30 -198 -6
-580 -15 -850 -21 -269 -6 -497 -15 -506 -19 -10 -6 -19 -3 -26 9 -6 10 -33
26 -59 36 -27 9 -62 24 -79 31 -36 16 -702 283 -910 366 -82 32 -159 63 -170
68 -19 9 -89 38 -130 55 -41 17 93 23 536 24 356 1 449 4 464 14 11 9 15 19
10 27 -7 11 -112 12 -559 7 -303 -3 -559 -8 -568 -12 -23 -9 -24 -62 -3 -154
55 -250 114 -565 112 -599 -2 -32 1 -34 58 -58 33 -14 69 -29 80 -34 11 -5 43
-18 70 -30 87 -37 119 -51 140 -60 11 -5 124 -53 250 -106 468 -196 660 -277
664 -281 16 -12 -57 -15 -468 -23 l-462 -9 -104 50 c-58 27 -107 49 -109 49
-4 0 -61 25 -291 130 -22 10 -75 34 -118 54 -44 20 -80 36 -82 36 -3 0 -48 20
-190 85 -27 12 -72 32 -100 44 -27 12 -57 26 -66 31 -10 5 -45 21 -80 35 -67
28 -324 144 -447 201 -41 19 -75 34 -77 34 -2 0 -42 18 -89 40 -47 22 -109 49
-138 61 -96 41 -98 46 -21 53 37 3 158 10 268 16 110 5 279 15 375 20 96 6
279 16 405 22 428 20 439 21 443 39 2 9 -3 19 -10 21 -7 3 -134 -1 -283 -8
-148 -7 -376 -18 -505 -23 -129 -6 -290 -16 -358 -21 -67 -6 -166 -10 -220
-11 -53 -1 -124 -4 -157 -8 -52 -5 -60 -9 -63 -28 -2 -13 -7 -23 -12 -23 -17
0 -21 -109 -11 -305 6 -110 18 -326 26 -480 8 -154 19 -332 25 -395 5 -63 10
-116 10 -118 0 -3 98 -49 240 -114 30 -14 91 -42 135 -63 137 -64 218 -102
270 -125 28 -12 101 -47 164 -76 62 -30 115 -54 116 -54 2 0 52 -23 112 -51
59 -28 131 -61 158 -74 28 -12 85 -39 128 -59 42 -20 110 -51 150 -70 39 -18
131 -61 202 -94 72 -33 170 -78 219 -101 76 -36 92 -40 120 -32 17 6 177 15
356 21 179 7 422 16 540 20 118 4 346 13 505 19 160 6 387 15 505 21 118 6
350 15 515 21 448 15 755 26 1105 38 173 6 425 16 560 21 135 6 396 15 580 21
184 6 407 14 495 18 88 4 168 3 177 -1 14 -7 22 0 38 31 11 22 24 42 29 45 5
4 19 39 31 79 12 39 25 83 30 97 24 70 28 258 9 390 -21 148 -62 309 -95 372
-8 14 -14 34 -14 43 0 10 -10 34 -22 54 -53 87 -105 136 -243 226 -226 148
-549 363 -705 470 -195 132 -460 312 -600 407 -63 43 -121 78 -130 78 -9 0
-25 -6 -36 -14 -13 -9 -76 -18 -189 -25 -94 -7 -212 -16 -264 -21 -98 -9 -113
-6 -226 44 -16 8 -67 28 -113 47 -45 18 -81 37 -79 42 1 5 36 18 77 28 41 10
167 41 279 68 205 51 245 67 219 89 -10 8 -29 7 -73 -4 -33 -8 -175 -44 -315
-79 -140 -35 -286 -72 -325 -84 -38 -11 -101 -27 -140 -35 -123 -27 -249 -56
-285 -66 -19 -5 -75 -19 -125 -30 -113 -26 -568 -137 -615 -150 -51 -15 -132
-31 -135 -28 -4 3 -32 271 -46 433 -5 55 -13 179 -19 275 -5 96 -14 236 -20
310 -25 317 -40 518 -55 719 -8 117 -17 216 -19 220 -3 4 -6 45 -7 91 l-2 84
94 32 c52 17 148 48 214 69 66 20 152 47 190 60 39 13 144 46 235 75 91 28
197 62 235 75 39 12 138 44 220 70 175 54 306 96 425 135 264 86 362 114 420
119 61 6 65 7 65 31 0 24 -3 25 -50 23 -152 -5 -209 -4 -290 5 -49 6 -101 13
-115 16 -14 4 -47 10 -75 14 -27 4 -68 20 -90 35 -22 15 -43 27 -48 27 -14 0
-141 106 -175 146 -18 22 -43 50 -54 64 -33 39 -68 108 -68 136 0 17 9 30 30
42 16 9 30 25 30 35 0 28 -73 23 -102 -8z m6 -126 c10 -28 36 -72 57 -97 21
-26 51 -62 66 -81 33 -40 168 -149 201 -162 12 -5 35 -18 50 -29 15 -11 43
-22 62 -25 74 -8 121 -18 126 -26 3 -5 40 -9 82 -10 l77 -1 -110 -36 c-60 -19
-276 -90 -480 -158 -203 -67 -417 -137 -475 -154 -58 -18 -177 -56 -265 -85
-88 -29 -187 -60 -220 -70 -33 -9 -78 -23 -100 -31 -22 -7 -91 -25 -153 -40
l-112 -26 -103 17 c-56 9 -132 21 -170 27 -51 9 -73 8 -94 -1 -25 -11 -25 -13
-7 -25 28 -20 194 -40 311 -37 l102 2 5 -33 c3 -18 10 -98 16 -178 6 -80 15
-194 20 -255 5 -60 12 -150 15 -200 3 -49 10 -133 15 -185 6 -52 15 -160 20
-240 6 -80 17 -226 25 -325 8 -99 19 -250 25 -335 6 -85 15 -191 20 -234 16
-131 14 -163 -13 -170 -29 -7 -167 2 -227 15 -25 6 -70 15 -100 20 -56 10
-138 36 -153 49 -5 4 -13 47 -18 96 -11 105 -34 335 -54 524 -8 74 -21 200
-29 280 -8 80 -20 192 -25 250 -6 58 -15 143 -20 190 -6 47 -18 153 -26 235
-9 83 -22 211 -30 285 -8 74 -17 168 -21 208 l-6 73 41 -7 c46 -7 54 5 21 34
-11 9 -32 28 -45 41 l-25 23 23 17 c25 18 41 27 135 78 72 39 150 81 222 121
85 47 555 305 620 340 36 19 108 58 160 87 52 29 127 69 165 90 39 20 88 48
110 60 22 12 72 40 110 60 39 21 88 49 110 61 22 13 42 23 46 24 3 0 13 -23
23 -51z m-2529 -2959 c11 -5 45 -19 75 -30 30 -11 64 -25 75 -30 11 -5 148
-61 305 -124 157 -63 296 -118 310 -124 14 -6 50 -20 80 -32 30 -11 64 -25 75
-30 78 -35 322 -130 335 -130 8 0 27 -23 41 -53 15 -28 36 -72 48 -95 14 -29
23 -69 26 -118 2 -41 6 -78 9 -83 9 -13 -44 -237 -70 -298 -15 -36 -29 -41
-53 -19 -9 8 -104 51 -211 95 -107 45 -204 86 -215 91 -11 5 -42 18 -70 30
-27 12 -59 25 -70 30 -11 5 -128 54 -260 110 -244 103 -294 125 -330 140 -96
42 -115 50 -123 50 -5 0 -14 30 -20 68 -12 70 -51 271 -97 492 -8 36 -16 79
-19 97 l-5 32 72 -30 c40 -17 81 -34 92 -39z m3978 -127 c23 -14 81 -52 128
-84 48 -31 106 -66 130 -77 24 -10 64 -36 89 -57 25 -21 70 -54 100 -73 85
-55 878 -583 937 -625 29 -20 57 -37 63 -37 5 0 10 -4 10 -9 0 -5 -156 -11
-347 -15 -192 -3 -475 -11 -630 -17 -155 -6 -286 -8 -292 -5 -6 4 0 30 15 67
73 178 36 552 -63 641 -18 16 -122 62 -378 164 -60 25 -123 51 -140 58 -16 7
-51 21 -77 31 -27 10 -48 21 -48 25 0 5 57 11 128 15 70 3 156 10 192 14 115
15 137 13 183 -16z m-5658 -268 c22 -10 72 -32 110 -50 39 -18 104 -47 145
-65 41 -18 113 -50 158 -71 46 -22 85 -39 87 -39 2 0 39 -16 82 -36 43 -20
117 -54 166 -75 217 -96 266 -119 327 -146 36 -17 99 -45 140 -63 41 -18 113
-50 158 -71 46 -22 86 -39 88 -39 2 0 47 -20 100 -45 53 -25 98 -45 100 -45 2
0 47 -20 99 -45 106 -49 155 -88 155 -122 0 -22 6 -38 57 -153 13 -30 28 -77
33 -105 5 -27 14 -70 21 -95 15 -54 15 -333 0 -405 -5 -27 -15 -75 -21 -105
-7 -30 -15 -59 -19 -65 -5 -5 -14 -32 -20 -60 -7 -27 -24 -76 -39 -107 -31
-66 -22 -66 -156 -3 -50 23 -116 54 -146 67 -95 44 -182 84 -260 121 -41 19
-106 49 -145 67 -38 18 -101 47 -140 65 -38 18 -92 42 -120 55 -27 12 -106 49
-174 81 -68 33 -125 59 -127 59 -2 0 -52 23 -111 51 -59 28 -155 73 -213 99
-58 26 -152 70 -210 98 -58 27 -114 52 -126 56 -19 6 -21 18 -32 274 -19 433
-40 812 -48 885 l-7 68 24 -10 c13 -5 42 -17 64 -26z m5785 -85 c24 -34 45
-96 66 -200 24 -120 8 -261 -43 -378 l-18 -42 -100 -4 c-55 -3 -264 -9 -465
-15 -201 -6 -482 -15 -625 -21 -312 -12 -906 -29 -1288 -37 l-277 -6 6 34 c4
19 18 68 32 109 24 68 26 89 26 215 l-1 140 -37 72 c-20 40 -36 76 -36 81 0
16 86 22 293 22 110 0 331 4 491 10 259 9 694 20 1611 40 160 3 302 7 317 8
19 1 32 -6 48 -28z m1375 -670 c3 -5 13 -10 21 -10 30 0 104 -92 104 -130 0
-12 6 -34 14 -48 8 -15 24 -63 36 -107 12 -44 26 -89 30 -100 10 -24 31 -176
38 -265 4 -68 -8 -162 -34 -265 -8 -33 -18 -71 -21 -85 -3 -14 -17 -41 -30
-61 l-24 -36 -232 -7 c-128 -4 -245 -9 -262 -12 -16 -2 -35 -1 -41 3 -7 5 -17
55 -23 113 -6 58 -18 161 -26 230 -8 69 -22 184 -30 255 -9 72 -22 186 -30
255 -9 69 -18 155 -21 193 l-7 67 169 1 c93 1 203 5 244 9 116 11 118 11 125
0z m-584 -55 c4 -22 12 -85 18 -140 6 -55 18 -156 26 -225 16 -134 34 -289 61
-515 25 -211 30 -189 -46 -196 -36 -4 -128 -10 -206 -14 l-141 -7 -12 88 c-7
49 -17 127 -22 174 -5 47 -13 114 -18 150 -6 36 -17 126 -26 200 -9 74 -22
182 -30 240 -16 126 -29 239 -30 260 0 12 22 16 115 21 63 3 158 5 210 5 l94
-1 7 -40z m-487 29 c11 -4 16 -19 16 -51 0 -24 7 -92 15 -151 22 -163 43 -332
60 -487 9 -77 23 -193 31 -258 8 -66 14 -131 14 -147 l0 -28 -122 -6 c-68 -3
-206 -8 -308 -11 -102 -3 -284 -10 -405 -15 -121 -6 -357 -15 -525 -21 -168
-6 -424 -14 -570 -19 -146 -5 -465 -16 -710 -25 -245 -8 -587 -20 -760 -25
-173 -5 -418 -14 -545 -20 -126 -5 -251 -10 -277 -10 l-47 0 24 46 c14 26 25
54 25 63 0 9 10 43 21 76 45 133 69 299 65 442 -4 108 -44 309 -77 388 -12 28
-27 65 -35 83 -8 18 -14 45 -14 61 l0 28 248 6 c136 4 474 11 752 16 527 10
1150 24 1820 41 217 6 566 14 775 19 209 4 410 8 447 9 36 1 73 -1 82 -4z"/>
<path d="M4719 7541 c-193 -102 -273 -145 -388 -208 -74 -40 -135 -73 -137
-73 -2 0 -48 -24 -101 -54 -54 -29 -132 -71 -173 -93 -99 -53 -217 -117 -311
-167 -41 -23 -97 -52 -123 -66 -52 -27 -65 -45 -48 -62 11 -11 22 -6 192 85
86 46 180 97 235 127 28 15 91 49 140 75 50 26 137 73 195 105 58 31 150 81
205 110 55 29 138 74 185 99 47 26 102 56 123 66 54 28 72 49 54 63 -10 9 -22
7 -48 -7z"/>
<path d="M4774 7356 c-60 -29 -208 -98 -334 -159 -52 -25 -129 -61 -170 -80
-41 -19 -127 -59 -190 -90 -63 -30 -169 -80 -235 -111 -220 -105 -250 -121
-250 -136 0 -26 45 -14 175 48 69 33 164 78 213 101 216 102 259 122 362 171
61 29 144 68 185 87 231 108 320 155 320 167 0 24 -26 25 -76 2z"/>
<path d="M5050 7220 c-14 -4 -83 -29 -155 -55 -71 -26 -148 -53 -170 -60 -22
-8 -98 -35 -170 -60 -71 -26 -148 -53 -170 -60 -22 -8 -85 -30 -140 -50 -55
-20 -127 -45 -160 -56 -33 -11 -69 -24 -80 -29 -11 -5 -63 -23 -115 -40 -52
-18 -106 -39 -119 -47 -21 -13 -22 -17 -8 -30 14 -14 22 -13 84 10 37 13 97
35 133 47 36 12 74 26 85 30 19 7 71 26 280 99 243 86 458 162 480 171 11 4
61 22 110 39 153 54 180 66 180 81 0 18 -30 22 -65 10z"/>
<path d="M2520 4456 c0 -7 6 -18 13 -24 26 -21 850 -343 864 -338 8 3 13 11
11 18 -6 17 -47 37 -188 92 -69 27 -143 57 -165 66 -22 9 -56 23 -75 30 -19 7
-53 21 -75 30 -22 9 -60 25 -85 34 -25 10 -54 22 -65 27 -11 4 -45 18 -75 30
-30 12 -69 28 -87 35 -40 18 -73 18 -73 0z"/>
<path d="M2497 4213 c-4 -3 -7 -13 -7 -22 0 -16 7 -20 180 -86 52 -19 104 -40
115 -45 11 -6 52 -21 90 -36 39 -14 131 -49 205 -79 271 -106 272 -107 283
-96 26 26 -2 40 -313 158 -63 24 -124 48 -135 53 -11 5 -63 26 -115 45 -52 19
-104 40 -115 45 -16 8 -177 70 -181 70 0 0 -4 -3 -7 -7z"/>
<path d="M807 4096 c-7 -17 5 -28 53 -49 19 -8 67 -30 105 -47 39 -18 96 -43
128 -56 32 -14 86 -37 120 -53 34 -16 114 -51 177 -79 63 -27 142 -62 175 -77
33 -14 74 -33 90 -40 17 -7 73 -32 125 -55 97 -42 110 -48 215 -95 33 -15 94
-42 135 -60 41 -19 116 -52 165 -74 97 -44 139 -52 133 -25 -2 8 -14 22 -28
29 -24 14 -47 24 -210 95 -41 18 -120 53 -175 77 -115 52 -127 57 -255 113
-52 23 -113 50 -135 60 -22 10 -83 37 -135 60 -52 23 -117 52 -145 65 -27 12
-120 53 -205 90 -85 37 -188 83 -228 101 -82 38 -97 41 -105 20z"/>
<path d="M794 3848 c-4 -6 1 -17 10 -23 31 -23 1533 -665 1556 -665 15 0 20 5
18 18 -2 12 -164 86 -588 269 -322 138 -607 262 -635 274 -27 12 -63 27 -80
35 -16 7 -78 33 -137 58 -113 48 -132 53 -144 34z"/>
<path d="M847 3553 c-25 -24 -5 -38 183 -118 76 -33 104 -45 243 -109 44 -20
80 -36 82 -36 5 0 135 -58 156 -70 9 -4 58 -26 110 -48 52 -22 128 -56 169
-75 41 -19 102 -46 135 -60 33 -14 89 -39 125 -55 229 -106 288 -125 278 -88
-4 12 -87 55 -228 117 -52 23 -124 55 -160 71 -36 16 -74 33 -85 38 -11 5 -47
21 -80 36 -33 14 -94 41 -135 59 -41 18 -102 45 -135 60 -33 15 -94 42 -135
60 -76 33 -104 45 -243 109 -44 20 -80 36 -82 36 -5 0 -136 59 -157 70 -21 12
-32 12 -41 3z"/>
<path d="M877 3273 c-14 -13 -6 -34 16 -42 12 -5 58 -25 102 -46 44 -20 106
-48 138 -61 32 -14 88 -38 125 -56 37 -17 117 -52 177 -78 104 -45 173 -75
275 -122 25 -11 70 -31 100 -45 87 -38 91 -40 173 -77 42 -20 79 -36 82 -36 2
0 43 -18 91 -40 88 -41 118 -45 112 -13 -2 12 -44 35 -123 70 -66 28 -145 63
-175 77 -30 13 -77 34 -105 46 -27 12 -79 36 -115 52 -36 16 -74 33 -85 38
-11 5 -47 21 -80 36 -33 14 -114 50 -180 79 -269 118 -312 137 -364 162 -130
60 -152 68 -164 56z"/>
<path d="M4075 4068 c-3 -7 -4 -97 -3 -198 3 -177 4 -185 23 -185 19 0 20 7
22 167 1 92 -2 179 -6 194 -8 31 -28 43 -36 22z"/>
<path d="M4267 3944 c-8 -9 -7 -137 2 -179 3 -17 14 -31 24 -33 16 -3 17 5 15
105 -2 88 -6 108 -18 111 -9 1 -19 0 -23 -4z"/>
<path d="M6225 3178 c4 -167 9 -314 11 -328 3 -14 8 -96 11 -182 5 -131 9
-158 21 -158 13 0 14 21 8 156 l-6 156 48 -39 c47 -37 186 -155 260 -220 20
-18 45 -33 56 -33 25 0 15 11 -80 91 -179 150 -239 202 -242 209 -2 4 61 69
140 144 95 91 136 136 123 136 -12 -1 -80 -59 -159 -135 -77 -74 -143 -135
-148 -135 -4 0 -8 42 -8 93 0 52 -3 196 -7 320 -5 187 -9 227 -21 227 -12 0
-13 -44 -7 -302z"/>
<path d="M3937 3333 l-27 -4 5 -252 c4 -139 10 -290 16 -337 5 -47 9 -136 9
-199 l0 -114 103 6 c285 16 352 34 413 113 47 63 56 171 19 244 -28 55 -117
120 -165 120 -31 0 -24 18 13 34 18 7 50 32 70 56 67 78 60 216 -13 278 -8 7
-33 22 -55 34 -36 19 -57 22 -200 24 -88 1 -172 0 -188 -3z m366 -42 c23 -11
56 -34 72 -51 28 -29 30 -36 30 -108 0 -66 -4 -82 -24 -109 -27 -36 -102 -76
-174 -92 -53 -12 -243 -15 -250 -3 -3 4 -8 91 -12 195 l-7 187 161 0 c139 0
168 -3 204 -19z m-28 -396 c146 -34 207 -115 190 -252 -15 -125 -135 -183
-379 -183 l-113 0 -7 123 c-3 67 -9 164 -12 215 l-7 92 59 1 c33 0 79 4 104 8
70 13 94 12 165 -4z"/>
<path d="M3178 3258 c-5 -14 16 -563 28 -720 5 -68 11 -99 21 -102 8 -3 16 1
20 10 5 14 -2 228 -24 699 -5 92 -13 125 -33 125 -4 0 -10 -6 -12 -12z"/>
<path d="M3593 3204 c-3 -9 0 -100 6 -202 27 -416 33 -454 63 -424 9 9 9 58
-1 214 -8 112 -16 244 -18 293 -2 50 -6 100 -9 113 -5 25 -32 30 -41 6z"/>
<path d="M5655 3091 c-84 -15 -170 -81 -208 -161 -17 -36 -21 -64 -21 -140 0
-83 3 -101 26 -145 73 -141 239 -202 393 -143 64 24 152 111 162 160 3 15 10
31 14 34 15 9 10 156 -7 203 -51 147 -189 221 -359 192z m165 -31 c71 -26 143
-96 164 -161 17 -52 22 -194 7 -204 -5 -3 -13 -19 -16 -36 -8 -37 -69 -101
-124 -129 -55 -28 -184 -28 -244 -1 -192 88 -216 379 -41 499 77 53 166 64
254 32z"/>
<path d="M4875 3064 c-199 -52 -283 -274 -180 -474 18 -35 74 -84 128 -112 60
-32 193 -32 258 -1 100 47 153 116 173 223 28 144 -34 279 -156 341 -42 21
-176 35 -223 23z m205 -45 c77 -34 116 -84 146 -188 16 -60 16 -67 0 -134 -20
-85 -57 -139 -124 -182 -44 -28 -53 -30 -147 -30 -92 0 -103 2 -141 27 -52 33
-103 94 -111 131 -3 15 -10 30 -14 33 -16 10 -10 147 9 194 24 64 46 92 96
128 74 53 191 61 286 21z"/>
<path d="M5860 7230 c-7 -14 -7 -59 0 -152 5 -73 15 -218 20 -323 6 -104 17
-305 25 -445 8 -140 19 -343 24 -450 6 -107 15 -262 21 -345 5 -82 15 -234 20
-337 6 -103 13 -194 16 -203 7 -18 34 -20 35 -2 5 55 -12 399 -41 842 -6 88
-15 246 -21 350 -31 594 -57 1024 -65 1058 -7 32 -19 35 -34 7z"/>
<path d="M4413 6575 c-132 -37 -228 -120 -285 -247 -14 -31 -15 -44 -7 -54 21
-25 36 -14 59 41 72 177 283 271 485 217 199 -54 310 -268 249 -480 -23 -78
-46 -122 -124 -232 -69 -96 -92 -125 -165 -210 -22 -26 -49 -58 -60 -71 -11
-13 -94 -112 -185 -219 -320 -377 -330 -389 -330 -415 l0 -25 475 0 c468 0
475 0 475 20 0 12 -7 20 -17 20 -10 0 -208 0 -440 0 -241 0 -423 3 -423 9 0 4
80 102 177 217 505 596 573 681 625 791 42 88 58 156 58 244 0 165 -88 303
-237 371 -60 27 -81 32 -173 35 -71 2 -122 -2 -157 -12z"/>
<path d="M5840 5683 l0 -236 -29 40 c-67 92 -167 129 -281 102 -73 -17 -158
-98 -183 -176 -38 -115 -8 -237 77 -315 16 -15 39 -31 50 -34 12 -4 24 -11 28
-17 4 -6 43 -11 90 -11 75 0 88 3 128 28 53 34 82 61 101 96 13 24 14 22 19
-43 3 -37 10 -68 15 -70 7 -1 11 150 13 436 2 384 0 437 -13 437 -13 0 -15
-32 -15 -237z m-144 -127 c188 -96 193 -377 9 -475 -79 -42 -213 -22 -273 42
-96 102 -98 279 -3 380 66 72 183 95 267 53z"/>
<path d="M4864 5573 c-48 -28 -77 -55 -102 -93 l-22 -35 0 62 c0 34 -5 65 -10
68 -7 4 -9 -82 -8 -262 2 -172 7 -267 13 -266 6 2 11 71 12 175 3 171 3 174
34 233 30 59 78 105 112 105 8 0 19 5 22 10 9 14 57 12 97 -4 77 -33 108 -90
108 -206 0 -133 13 -320 23 -320 5 0 8 81 5 208 -3 187 -6 211 -25 247 -39 74
-65 90 -151 93 -60 2 -84 -1 -108 -15z"/>
</g>
</svg>
